<svg width="27" height="26" viewBox="0 0 27 26" fill="none" xmlns="http://www.w3.org/2000/svg">
<path d="M25.691 7.27621C25.5736 7.1658 25.4313 7.08541 25.2761 7.04188C25.1209 6.99835 24.9575 6.99298 24.7998 7.02621C24.6056 6.32818 24.2754 5.67539 23.8282 5.10535C23.381 4.53531 22.8255 4.05925 22.1938 3.70452C21.562 3.34978 20.8664 3.12337 20.1469 3.03829C19.4273 2.9532 18.6981 3.01112 18.001 3.20871C17.5623 2.2513 16.8579 1.43998 15.9715 0.871173C15.0852 0.302369 14.0542 0 13.001 0C11.9479 0 10.9169 0.302369 10.0305 0.871173C9.14417 1.43998 8.43977 2.2513 8.00103 3.20871C7.30412 3.01086 6.57499 2.95264 5.85552 3.03739C5.13604 3.12214 4.4404 3.3482 3.80854 3.70257C3.17669 4.05695 2.62106 4.53266 2.17359 5.10239C1.72611 5.67211 1.3956 6.32463 1.20103 7.02246C1.03675 6.98875 0.866639 6.99689 0.706336 7.04614C0.546033 7.09539 0.400689 7.18415 0.283675 7.30428C0.166662 7.42441 0.0817369 7.57203 0.036714 7.73357C-0.00830891 7.89511 -0.0119838 8.06538 0.0260271 8.22871L3.84603 24.4587C3.94943 24.8975 4.19805 25.2885 4.55156 25.5683C4.90506 25.848 5.34271 26.0001 5.79353 26H20.2085C20.6593 26.0001 21.097 25.848 21.4505 25.5683C21.804 25.2885 22.0526 24.8975 22.156 24.4587L25.9748 8.22871C26.0146 8.05899 26.0094 7.8818 25.9596 7.71472C25.9098 7.54763 25.8172 7.39647 25.691 7.27621ZM6.50103 4.99996C7.07255 4.99837 7.63557 5.13837 8.13978 5.40746C8.2759 5.47966 8.42686 5.51943 8.58089 5.52367C8.73492 5.5279 8.88784 5.49648 9.02772 5.43187C9.1676 5.36725 9.29066 5.27118 9.38729 5.15116C9.48392 5.03114 9.55151 4.89041 9.58478 4.73996C9.75787 3.96299 10.1906 3.26823 10.8117 2.77031C11.4328 2.27238 12.205 2.00104 13.001 2.00104C13.797 2.00104 14.5693 2.27238 15.1903 2.77031C15.8114 3.26823 16.2442 3.96299 16.4173 4.73996C16.4505 4.89041 16.5181 5.03114 16.6148 5.15116C16.7114 5.27118 16.8344 5.36725 16.9743 5.43187C17.1142 5.49648 17.2671 5.5279 17.4212 5.52367C17.5752 5.51943 17.7262 5.47966 17.8623 5.40746C18.3252 5.16193 18.8373 5.02346 19.3608 5.00226C19.8844 4.98107 20.406 5.07769 20.8872 5.28501C21.3684 5.49232 21.7969 5.80504 22.1412 6.20008C22.4854 6.59512 22.7365 7.06241 22.876 7.56746L18.056 8.94246L13.7448 7.21746C13.2681 7.02688 12.7364 7.02688 12.2598 7.21746L7.94728 8.94496L3.12603 7.56746C3.33011 6.82915 3.77077 6.17817 4.38042 5.71439C4.99006 5.25061 5.73502 4.99963 6.50103 4.99996ZM5.79353 24L2.36478 9.42996L7.09603 10.7812L8.85853 24H5.79353ZM15.126 24H10.876L9.09478 10.64L13.001 9.07746L16.9073 10.64L15.126 24ZM20.2085 24H17.1435L18.906 10.7812L23.6373 9.42996L20.2085 24Z" fill="white"/>
</svg>
