<svg width="43" height="43" viewBox="0 0 43 43" fill="none" xmlns="http://www.w3.org/2000/svg">
<g id="threads">
<path id="Vector" d="M31.6984 19.9297C31.5132 19.8409 31.325 19.7555 31.1344 19.6736C30.8025 13.558 27.4609 10.0568 21.8498 10.021C21.8244 10.0209 21.7991 10.0209 21.7737 10.0209C18.4175 10.0209 15.6262 11.4534 13.9082 14.0603L16.9942 16.1771C18.2776 14.2299 20.2918 13.8148 21.7751 13.8148C21.7923 13.8148 21.8095 13.8148 21.8264 13.815C23.6739 13.8268 25.0681 14.3639 25.9704 15.4115C26.6271 16.1741 27.0662 17.228 27.2837 18.558C25.6457 18.2796 23.8742 18.194 21.9804 18.3026C16.6456 18.6099 13.216 21.7212 13.4463 26.0446C13.5632 28.2376 14.6557 30.1242 16.5225 31.3566C18.1008 32.3985 20.1336 32.908 22.2463 32.7927C25.0363 32.6397 27.225 31.5752 28.752 29.6288C29.9116 28.1507 30.6451 26.2351 30.9689 23.8216C32.2986 24.624 33.284 25.68 33.8282 26.9494C34.7536 29.1072 34.8076 32.6531 31.9143 35.544C29.3793 38.0765 26.3321 39.1721 21.727 39.2059C16.6186 39.1681 12.7553 37.5298 10.2434 34.3366C7.89126 31.3466 6.67566 27.0277 6.63031 21.5C6.67566 15.9722 7.89126 11.6534 10.2434 8.66331C12.7553 5.47016 16.6186 3.83193 21.7269 3.79397C26.8723 3.83222 30.803 5.47833 33.411 8.6869C34.6898 10.2603 35.6539 12.2391 36.2895 14.5462L39.9058 13.5813C39.1354 10.7415 37.9231 8.29445 36.2734 6.26501C32.9299 2.1515 28.04 0.043705 21.7395 0H21.7143C15.4266 0.0435532 10.5914 2.15936 7.34319 6.28859C4.4527 9.9631 2.96169 15.0759 2.91159 21.4849L2.91144 21.5L2.91159 21.5151C2.96169 27.924 4.4527 33.037 7.34319 36.7115C10.5914 40.8406 15.4266 42.9566 21.7143 43H21.7395C27.3296 42.9613 31.2699 41.4977 34.516 38.2545C38.7629 34.0117 38.635 28.6933 37.2353 25.4285C36.2311 23.0872 34.3164 21.1856 31.6984 19.9297ZM22.0465 29.0042C19.7084 29.1359 17.2793 28.0864 17.1596 25.8385C17.0708 24.1718 18.3457 22.3121 22.19 22.0905C22.6303 22.0651 23.0623 22.0527 23.4867 22.0527C24.8831 22.0527 26.1894 22.1884 27.3771 22.448C26.9341 27.9802 24.3357 28.8785 22.0465 29.0042Z" fill="white"/>
</g>
</svg>
